<?xml version="1.0" encoding="utf-8"?>
<!-- Generator: Adobe Illustrator 28.1.0, SVG Export Plug-In . SVG Version: 6.00 Build 0)  -->
<svg version="1.1" id="Layer_1" xmlns="http://www.w3.org/2000/svg" xmlns:xlink="http://www.w3.org/1999/xlink" x="0px" y="0px"
	 viewBox="0 0 128 64" style="enable-background:new 0 0 128 64;" xml:space="preserve">
<style type="text/css">
	.st0{fill-rule:evenodd;clip-rule:evenodd;fill:#FFFFFF;}
</style>
<g id="Page-1">
	<g id="Group-4" transform="translate(-0.000000, -0.000000)">
		<path id="Fill-1" class="st0" d="M38.4,38.2c0.1,7.2-5.9,13-12.8,12.8c-6.7-0.2-12.2-5.9-12.1-12.8V25.4h12.1V12.6H13.4V0H0v38.2
			c0,14.1,11.5,25.6,25.6,25.6s25.6-11.4,25.6-25.6H38.4z"/>
		<path id="Fill-2" class="st0" d="M76.8,38.2c0.1,7.2-5.9,13-12.8,12.8c-6.7-0.2-12.2-5.9-12.1-12.8V25.4H64V12.6H51.8V0H38.4v38.2
			c0,14.1,11.5,25.6,25.6,25.6s25.6-11.4,25.6-25.6H76.8z"/>
		<path id="Fill-3" class="st0" d="M102.4,51c-7.1,0-12.8-5.7-12.8-12.8c0-7.1,5.7-12.8,12.8-12.8c7.1,0,12.8,5.7,12.8,12.8
			C115.2,45.3,109.5,51,102.4,51 M102.4,12.6c-4.4,0-8.5,1.1-12.1,3.1V0H76.8v38.2c0,14.1,11.5,25.6,25.6,25.6
			c14.1,0,25.6-11.5,25.6-25.6S116.5,12.6,102.4,12.6"/>
	</g>
</g>
</svg>
