<?xml version="1.0" encoding="utf-8"?>
<!-- Generator: Adobe Illustrator 28.1.0, SVG Export Plug-In . SVG Version: 6.00 Build 0)  -->
<svg version="1.1" id="Layer_1" xmlns="http://www.w3.org/2000/svg" xmlns:xlink="http://www.w3.org/1999/xlink" x="0px" y="0px"
	 viewBox="0 0 1221.9 782.4" style="enable-background:new 0 0 1221.9 782.4;" xml:space="preserve">
<style type="text/css">
	.st0{fill:#00427A;}
	.st1{fill:#00A796;}
	.st2{opacity:0;}
	.st3{fill:#FFFFFF;}
</style>
<g id="BorderBox">
	<path class="st0" d="M547,782.4H377c-86.6,0-156.8-70.2-156.8-156.8c0,0,0,0,0,0V450.1h183.7v95.8c0,29,23.5,52.5,52.5,52.5H547
		V782.4z"/>
	<path class="st0" d="M547,187.7h-90.6c-29,0-52.5,23.5-52.5,52.5v87.9H220.1V156.8C220.1,70.2,290.3,0,376.9,0c0,0,0,0,0,0h170
		V187.7z"/>
	<path class="st0" d="M1002.6,328.1H814.6v-87.9c0-29-23.5-52.5-52.5-52.5c0,0,0,0,0,0h-91.8V0h175.5c86.6,0,156.8,70.2,156.8,156.8
		c0,0,0,0,0,0L1002.6,328.1z"/>
</g>
<g id="TailBox">
	<path class="st1" d="M815.7,427.9v123.5c0,26.6-21.6,48.2-48.2,48.2h-97.3v182.8h487.3L815.7,427.9z"/>
</g>
<g id="Padding">
	<g class="st2">
		<path class="st3" d="M5.8,393.8c7.7,0,7.7-12,0-12S-1.9,393.8,5.8,393.8z"/>
	</g>
</g>
</svg>
